<?xml version="1.0" encoding="UTF-8"?>
<svg version="1.1" xmlns="http://www.w3.org/2000/svg" width="250" height="165">
<path d="M0 0 C0.88456879 -0.01921509 1.76913757 -0.03843018 2.68051147 -0.05822754 C3.63366241 -0.06672729 4.58681335 -0.07522705 5.56884766 -0.08398438 C6.55156647 -0.09538452 7.53428528 -0.10678467 8.54678345 -0.11853027 C10.62636002 -0.13742445 12.70599641 -0.15049597 14.78564453 -0.15820312 C17.96444261 -0.17762156 21.14065657 -0.2396633 24.31884766 -0.30273438 C26.33966563 -0.31579453 28.3605021 -0.32629544 30.38134766 -0.33398438 C31.33045013 -0.35867798 32.27955261 -0.38337158 33.25741577 -0.40881348 C34.14828888 -0.40281128 35.03916199 -0.39680908 35.95703125 -0.390625 C37.12593399 -0.40156189 37.12593399 -0.40156189 38.31845093 -0.41271973 C41.13631734 0.49190024 42.83298477 1.82725052 44.61817551 4.18570328 C46.86045934 9.02617159 46.26776992 14.56655107 46.20727539 19.79150391 C46.20914079 21.16519616 46.21318032 22.53888691 46.21922302 23.91256714 C46.22917811 27.63166205 46.20806195 31.34999196 46.18074298 35.06897593 C46.15687316 38.96417134 46.15985763 42.85935263 46.15943909 46.75460815 C46.15481488 53.29307979 46.13119679 59.83125971 46.0949707 66.36962891 C46.05320449 73.92802913 46.03565361 81.48616695 46.03235096 89.04467595 C46.02875123 97.09607249 46.00987968 105.14737472 45.98523068 113.1987319 C45.97900387 115.51759091 45.97536648 117.83644275 45.97219658 120.15530777 C45.96629429 123.7980914 45.94997661 127.44068776 45.92559242 131.0833931 C45.91460725 133.05778743 45.91331353 135.03222821 45.91229248 137.00665283 C45.90231735 138.1814621 45.89234222 139.35627136 45.88206482 140.56668091 C45.87741431 141.58760897 45.87276381 142.60853703 45.86797237 143.6604023 C45.59910665 146.41237379 45.11366247 148.01970439 43.60791016 150.32226562 C38.6837202 153.63675939 34.38509597 153.7508559 28.66650391 153.68554688 C27.82120621 153.68604538 26.97590851 153.68654388 26.10499573 153.6870575 C24.32575112 153.68472623 22.54650262 153.67505391 20.76733398 153.65844727 C18.05048028 153.63480974 15.33460658 153.6378992 12.61767578 153.64453125 C10.883946 153.63895514 9.15022033 153.63184568 7.41650391 153.62304688 C6.60805527 153.62395828 5.79960663 153.62486969 4.96665955 153.62580872 C-0.05332724 153.56293558 -4.056975 153.15699872 -8.14208984 149.94726562 C-10.71375931 146.60409532 -10.52029212 142.79790035 -10.53253174 138.71853638 C-10.53824188 137.57738373 -10.54395203 136.43623108 -10.54983521 135.26049805 C-10.55095306 134.01260498 -10.55207092 132.76471191 -10.55322266 131.47900391 C-10.56067001 129.50285599 -10.56067001 129.50285599 -10.56826782 127.48678589 C-10.58136938 123.87516532 -10.58783219 120.26356332 -10.59227848 116.6519227 C-10.59521236 114.39449089 -10.59931772 112.13706412 -10.60378265 109.87963486 C-10.61745063 102.81352771 -10.62712115 95.74743213 -10.63098454 88.68131268 C-10.63546608 80.53000678 -10.65302126 72.3788685 -10.68198514 64.22761357 C-10.70360978 57.92260461 -10.71368921 51.6176428 -10.71502566 45.31259716 C-10.71607298 41.54867597 -10.72196522 37.78491251 -10.73984528 34.02103043 C-10.75633999 30.48004802 -10.75847485 26.93934167 -10.74970627 23.3983345 C-10.7485705 21.48389935 -10.7622764 19.56947329 -10.77645874 17.65509033 C-10.72440913 6.93710584 -10.72440913 6.93710584 -7.39208984 2.32226562 C-4.28706997 0.25225238 -3.5343062 0.06206238 0 0 Z M9.60791016 19.32226562 C9.60791016 57.27226563 9.60791016 95.22226563 9.60791016 134.32226562 C15.21791016 134.32226562 20.82791016 134.32226562 26.60791016 134.32226562 C26.60791016 96.37226562 26.60791016 58.42226562 26.60791016 19.32226562 C20.99791016 19.32226562 15.38791016 19.32226562 9.60791016 19.32226562 Z " fill="#AADF82" transform="translate(198.39208984375,5.677734375)"/>
<path d="M0 0 C0.87173859 -0.00570007 1.74347717 -0.01140015 2.64163208 -0.01727295 C4.48584786 -0.02671683 6.33008047 -0.0332545 8.17431641 -0.03710938 C10.99020936 -0.04681433 13.80537209 -0.07784286 16.62109375 -0.109375 C18.41405817 -0.11590543 20.20702781 -0.12115575 22 -0.125 C23.25960037 -0.1435202 23.25960037 -0.1435202 24.54464722 -0.16241455 C29.22982313 -0.14463354 32.34809549 0.1318096 36.1328125 3.203125 C38.24044593 6.36457514 38.38620158 7.13055353 38.40696716 10.74423218 C38.42192986 12.14053612 38.42192986 12.14053612 38.43719482 13.56504822 C38.4378595 14.58433914 38.43852417 15.60363007 38.43920898 16.65380859 C38.4475325 17.72886154 38.45585602 18.80391449 38.46443176 19.9115448 C38.48858035 23.47492058 38.49730973 27.0381135 38.50390625 30.6015625 C38.51286858 33.07394467 38.52199035 35.54632626 38.53126526 38.01870728 C38.54777083 43.2055188 38.55545829 48.39226565 38.55834961 53.57910156 C38.56373623 60.22975016 38.60142127 66.87958956 38.64709377 73.53009605 C38.67681591 78.63787056 38.68407212 83.74549811 38.68507576 88.85335159 C38.68928735 91.30540369 38.70175894 93.75745586 38.72259331 96.20942307 C38.74940688 99.63795507 38.74471108 103.06506952 38.73217773 106.49365234 C38.74701202 107.50889481 38.76184631 108.52413727 38.77713013 109.57014465 C38.72818783 114.26459159 38.68388688 116.47455906 35.78285217 120.30996704 C31.18808358 123.59241705 26.9586251 123.37801808 21.51953125 123.40625 C20.24877495 123.41480011 20.24877495 123.41480011 18.9523468 123.42352295 C17.15940599 123.43296702 15.36644787 123.43950458 13.57348633 123.44335938 C10.84099742 123.45305163 8.10926512 123.48407462 5.37695312 123.515625 C3.63281695 123.52215678 1.88867542 123.52740657 0.14453125 123.53125 C-0.66816727 123.5435968 -1.48086578 123.5559436 -2.31819153 123.56866455 C-7.23184764 123.54953015 -10.62823536 122.96149393 -14.8671875 120.203125 C-16.97482093 117.04167486 -17.12057658 116.27569647 -17.14134216 112.66201782 C-17.15131729 111.73114853 -17.16129242 110.80027924 -17.17156982 109.84120178 C-17.1722345 108.82191086 -17.17289917 107.80261993 -17.17358398 106.75244141 C-17.1819075 105.67738846 -17.19023102 104.60233551 -17.19880676 103.4947052 C-17.22295535 99.93132942 -17.23168473 96.3681365 -17.23828125 92.8046875 C-17.24724358 90.33230533 -17.25636535 87.85992374 -17.26564026 85.38754272 C-17.28214583 80.2007312 -17.28983329 75.01398435 -17.29272461 69.82714844 C-17.29811123 63.17649984 -17.33579627 56.52666044 -17.38146877 49.87615395 C-17.41119091 44.76837944 -17.41844712 39.66075189 -17.41945076 34.55289841 C-17.42366235 32.10084631 -17.43613394 29.64879414 -17.45696831 27.19682693 C-17.48378188 23.76829493 -17.47908608 20.34118048 -17.46655273 16.91259766 C-17.48138702 15.89735519 -17.49622131 14.88211273 -17.51150513 13.83610535 C-17.46256283 9.14165841 -17.41826188 6.93169094 -14.51722717 3.09628296 C-9.85810305 -0.2321419 -5.5147478 0.02777614 0 0 Z M2.1328125 19.203125 C2.1328125 47.253125 2.1328125 75.303125 2.1328125 104.203125 C7.7428125 104.203125 13.3528125 104.203125 19.1328125 104.203125 C19.1328125 76.153125 19.1328125 48.103125 19.1328125 19.203125 C13.5228125 19.203125 7.9128125 19.203125 2.1328125 19.203125 Z " fill="#75CB37" transform="translate(83.8671875,35.796875)"/>
<path d="M0 0 C0.81931503 -0.00287018 1.63863007 -0.00574036 2.48277283 -0.00869751 C4.20474952 -0.01072803 5.92674981 -0.00526938 7.64868164 0.00732422 C10.27347641 0.02341379 12.89673648 0.00743103 15.52148438 -0.01171875 C17.20182629 -0.00973654 18.88216725 -0.00589333 20.5625 0 C21.34077652 -0.00607269 22.11905304 -0.01214539 22.9209137 -0.0184021 C27.7276023 0.04321076 31.06162691 0.72641041 35.21484375 3.3984375 C37.2444419 6.44283473 37.46570857 7.02927969 37.47554016 10.4460144 C37.48262497 11.26749969 37.48970978 12.08898499 37.49700928 12.93536377 C37.49453186 13.83309509 37.49205444 14.73082642 37.48950195 15.65576172 C37.49461288 16.60401825 37.49972382 17.55227478 37.50498962 18.52926636 C37.51891382 21.6706164 37.51792657 24.81174772 37.515625 27.953125 C37.51951068 30.13404421 37.52384508 32.31496266 37.52861023 34.49588013 C37.53607875 39.0706833 37.53577679 43.64540931 37.53051758 48.22021484 C37.5247254 54.08372507 37.54164497 59.94691917 37.56486225 65.81037712 C37.57959311 70.31594694 37.58047211 74.82144055 37.57735252 79.32703018 C37.57786617 81.48878734 37.58311197 83.65054872 37.59316444 85.81228256 C37.60549729 88.83583867 37.5987556 91.85877802 37.5871582 94.88232422 C37.59862381 96.22284851 37.59862381 96.22284851 37.61032104 97.5904541 C37.57003012 102.34154378 37.33141137 105.55452704 34.21484375 109.3984375 C29.919741 111.99866022 25.27949034 111.70471261 20.40625 111.69921875 C19.13973854 111.70564644 19.13973854 111.70564644 17.84764099 111.71220398 C16.06664932 111.7179321 14.28563425 111.71845875 12.50463867 111.71411133 C9.78979323 111.71095199 7.07603896 111.73442668 4.36132812 111.75976562 C2.62630345 111.76203895 0.89127586 111.76274196 -0.84375 111.76171875 C-1.65017441 111.7709285 -2.45659882 111.78013824 -3.28746033 111.78962708 C-8.13656028 111.75010427 -11.73631584 111.34773213 -15.78515625 108.3984375 C-18.71828102 102.93495671 -19.21904488 98.4934202 -19.17333984 92.36132812 C-19.1785968 91.48397507 -19.18385376 90.60662201 -19.18927002 89.7026825 C-19.20240918 86.81983318 -19.19375353 83.93754185 -19.18359375 81.0546875 C-19.18561623 79.041218 -19.18852912 77.02774922 -19.19229126 75.01428223 C-19.19670638 70.80127973 -19.19030967 66.58846849 -19.17626953 62.37548828 C-19.15917824 56.9853213 -19.16902376 51.59560252 -19.18698692 46.20545197 C-19.19784666 42.04979091 -19.19436835 37.89423547 -19.18660355 33.73857117 C-19.1846076 31.75152025 -19.18703947 29.76445963 -19.19404221 27.77742004 C-19.20169272 24.99653865 -19.19000212 22.21637505 -19.17333984 19.43554688 C-19.17941254 18.62079391 -19.18548523 17.80604095 -19.19174194 16.96659851 C-19.13383391 11.72857556 -18.3154479 8.02154447 -15.78515625 3.3984375 C-10.60138482 0.23938146 -5.96733659 -0.04668302 0 0 Z M1.21484375 19.3984375 C1.21484375 43.4884375 1.21484375 67.5784375 1.21484375 92.3984375 C6.82484375 92.3984375 12.43484375 92.3984375 18.21484375 92.3984375 C18.21484375 68.3084375 18.21484375 44.2184375 18.21484375 19.3984375 C12.60484375 19.3984375 6.99484375 19.3984375 1.21484375 19.3984375 Z " fill="#94D764" transform="translate(145.78515625,47.6015625)"/>
<path d="M0 0 C0.88441772 -0.0157608 1.76883545 -0.03152161 2.68005371 -0.04776001 C4.09429626 -0.03257828 4.09429626 -0.03257828 5.53710938 -0.01708984 C6.51699829 -0.02187347 7.49688721 -0.0266571 8.50646973 -0.03158569 C10.57415374 -0.03498175 12.64189166 -0.02579997 14.70947266 -0.00488281 C17.87068639 0.02188651 21.02834955 -0.00464106 24.18945312 -0.03662109 C26.2011797 -0.03331694 28.21290406 -0.0269106 30.22460938 -0.01708984 C31.16743774 -0.027211 32.11026611 -0.03733215 33.08166504 -0.04776001 C33.96608276 -0.03199921 34.85050049 -0.0162384 35.76171875 0 C36.53495483 0.00397797 37.30819092 0.00795593 38.1048584 0.01205444 C41.67915564 1.00914822 43.15250853 2.72286053 45.38085938 5.64697266 C45.87637037 8.48985537 46.06707422 10.73429323 46.02783203 13.57080078 C46.03659363 14.35353867 46.04535522 15.13627655 46.05438232 15.94273376 C46.07633128 18.52179935 46.06184085 21.09914064 46.04492188 23.67822266 C46.04829134 25.47514168 46.05314504 27.27205849 46.05941772 29.06896973 C46.06678291 32.83168271 46.05609524 36.5938015 46.03271484 40.35644531 C46.00422693 45.17548163 46.02063285 49.99312565 46.05057716 54.8121109 C46.06865992 58.52169249 46.0628877 62.2309449 46.0499382 65.9405365 C46.04660688 67.71711899 46.05068168 69.49373154 46.06233597 71.27027893 C46.07506134 73.75537058 46.0556471 76.23821963 46.02783203 78.72314453 C46.03795319 79.45472275 46.04807434 80.18630096 46.0585022 80.94004822 C45.9780247 84.82828969 45.49158742 86.50895933 43.02792358 89.57971191 C38.50387458 93.11282942 34.27022087 92.82153588 28.76757812 92.85009766 C27.49682182 92.85864777 27.49682182 92.85864777 26.20039368 92.86737061 C24.40745287 92.87681468 22.61449474 92.88335224 20.8215332 92.88720703 C18.08904429 92.89689929 15.35731199 92.92792228 12.625 92.95947266 C10.88086383 92.96600444 9.13672229 92.97125422 7.39257812 92.97509766 C6.57987961 92.98744446 5.76718109 92.99979126 4.92985535 93.01251221 C0.01619923 92.99337781 -3.38018848 92.40534159 -7.61914062 89.64697266 C-10.06637201 85.97612558 -9.92171575 83.19755037 -9.92553711 78.95019531 C-9.93386063 78.16774948 -9.94218414 77.38530365 -9.95075989 76.57914734 C-9.97487671 73.98972615 -9.98363397 71.40055678 -9.99023438 68.81103516 C-9.99919943 67.01126021 -10.00832125 65.21148604 -10.01759338 63.41171265 C-10.0340905 59.63724963 -10.0417848 55.8628754 -10.04467773 52.08837891 C-10.05006234 47.25371515 -10.0877421 42.41988662 -10.1334219 37.58545876 C-10.16317666 33.86737019 -10.17040094 30.14948314 -10.17140388 26.43128586 C-10.17560935 24.64908396 -10.18805678 22.86688163 -10.20892143 21.08479691 C-10.23580413 18.59008781 -10.23102092 16.09731944 -10.21850586 13.60253906 C-10.23334015 12.86781876 -10.24817444 12.13309845 -10.26345825 11.37611389 C-10.20871379 7.54047214 -9.71688222 5.77548818 -7.37037659 2.69018555 C-4.54291961 0.59036691 -3.43987156 0.01769666 0 0 Z M9.38085938 19.64697266 C9.38085938 37.46697266 9.38085938 55.28697266 9.38085938 73.64697266 C14.99085937 73.64697266 20.60085937 73.64697266 26.38085938 73.64697266 C26.38085938 55.82697266 26.38085938 38.00697266 26.38085938 19.64697266 C20.77085938 19.64697266 15.16085938 19.64697266 9.38085938 19.64697266 Z " fill="#A0DB75" transform="translate(15.619140625,66.35302734375)"/>
</svg>
